<svg id="Layer_1" data-name="Layer 1" xmlns="http://www.w3.org/2000/svg" viewBox="0 0 969 590.01"><title>chart2</title><line x1="123.58" y1="296.91" x2="845.67" y2="296.91" fill="none" stroke="#fff" stroke-miterlimit="10" stroke-width="4"/><circle cx="125.28" cy="294.97" r="22.2" fill="#fff"/><circle cx="125.28" cy="294.97" r="17.3" fill="#f28f00"/><circle cx="268.89" cy="294.97" r="22.2" fill="#fff"/><circle cx="268.89" cy="294.97" r="17.3" fill="#d14358"/><circle cx="412.49" cy="294.97" r="22.2" fill="#fff"/><circle cx="412.49" cy="294.97" r="17.3" fill="#3dceb5"/><circle cx="556.1" cy="294.97" r="22.2" fill="#fff"/><circle cx="556.1" cy="294.97" r="17.3" fill="#ff3939"/><circle cx="699.71" cy="294.97" r="22.2" fill="#fff"/><circle cx="699.71" cy="294.97" r="17.3" fill="#57ce95"/><circle cx="843.32" cy="294.97" r="22.2" fill="#fff"/><circle cx="843.31" cy="294.97" r="17.3" fill="#70c4e5"/><path d="M589.76,1767.05a9,9,0,0,1,1.48-5.2,5,5,0,0,1,4.33-2.4,5.09,5.09,0,0,1,4.51,2.4,9.47,9.47,0,0,1,1.32,5.2,8.55,8.55,0,0,1-1.53,5.28,5.45,5.45,0,0,1-8.64,0A8.7,8.7,0,0,1,589.76,1767.05Zm5.81,5.3a2.54,2.54,0,0,0,2.43-1.75,9.46,9.46,0,0,0,.55-3.55,10.38,10.38,0,0,0-.52-3.82,2.45,2.45,0,0,0-2.46-1.63,2.51,2.51,0,0,0-2.39,1.81,9.87,9.87,0,0,0-.56,3.64,9.58,9.58,0,0,0,.53,3.53A2.48,2.48,0,0,0,595.57,1772.35Z" transform="translate(-476.48 -1473)" fill="#fff"/><path d="M604.07,1764.4v-2.14a5.93,5.93,0,0,0,2.15-.77,6.57,6.57,0,0,0,1.13-.84,4.78,4.78,0,0,0,.82-1l0.53,0h0.47l0.79,0V1772h2.59v2.18h-8.09V1772h2.8v-8.57a6.35,6.35,0,0,1-1.56.64A6.08,6.08,0,0,1,604.07,1764.4Z" transform="translate(-476.48 -1473)" fill="#fff"/><path d="M732.76,1767.05a9,9,0,0,1,1.48-5.2,5,5,0,0,1,4.33-2.4,5.09,5.09,0,0,1,4.51,2.4,9.47,9.47,0,0,1,1.32,5.2,8.55,8.55,0,0,1-1.53,5.28,5.45,5.45,0,0,1-8.64,0A8.7,8.7,0,0,1,732.76,1767.05Zm5.81,5.3a2.54,2.54,0,0,0,2.43-1.75,9.46,9.46,0,0,0,.55-3.55,10.4,10.4,0,0,0-.52-3.82,2.45,2.45,0,0,0-2.46-1.63,2.51,2.51,0,0,0-2.39,1.81,9.87,9.87,0,0,0-.56,3.64,9.58,9.58,0,0,0,.53,3.53A2.48,2.48,0,0,0,738.57,1772.35Z" transform="translate(-476.48 -1473)" fill="#fff"/><path d="M750,1768.85a21.46,21.46,0,0,0,1.79-1.23,7,7,0,0,0,1.44-1.41,3.09,3.09,0,0,0,.59-1.78,2.51,2.51,0,0,0-.72-1.83,2.49,2.49,0,0,0-1.85-.73,2.57,2.57,0,0,0-2,.9,3.11,3.11,0,0,0-.8,2.14l-2.67-.64a5.65,5.65,0,0,1,1.88-3.43,5.4,5.4,0,0,1,3.66-1.33,5.46,5.46,0,0,1,4.18,1.56,4.68,4.68,0,0,1,1.23,3.32,4.42,4.42,0,0,1-.64,2.33,7.52,7.52,0,0,1-1.61,1.75q-0.62.5-2.06,1.44-0.77.52-2.6,1.48a3.84,3.84,0,0,0-.8.48h7.71v2.37h-11v-2.63l1.48-1Z" transform="translate(-476.48 -1473)" fill="#fff"/><path d="M876.56,1767.05a9,9,0,0,1,1.48-5.2,5,5,0,0,1,4.33-2.4,5.09,5.09,0,0,1,4.51,2.4,9.47,9.47,0,0,1,1.32,5.2,8.54,8.54,0,0,1-1.53,5.28,5.45,5.45,0,0,1-8.64,0A8.7,8.7,0,0,1,876.56,1767.05Zm5.81,5.3a2.54,2.54,0,0,0,2.43-1.75,9.46,9.46,0,0,0,.55-3.55,10.35,10.35,0,0,0-.52-3.82,2.45,2.45,0,0,0-2.46-1.63,2.51,2.51,0,0,0-2.39,1.81,9.87,9.87,0,0,0-.56,3.64,9.59,9.59,0,0,0,.53,3.53A2.48,2.48,0,0,0,882.37,1772.35Z" transform="translate(-476.48 -1473)" fill="#fff"/><path d="M895,1761.76a2.73,2.73,0,0,0-1.76.64,3.36,3.36,0,0,0-1,1.41l-2.5-.46a5.56,5.56,0,0,1,1.93-2.7,5.68,5.68,0,0,1,3.47-1.07,5.9,5.9,0,0,1,3.5,1.07,3.51,3.51,0,0,1,1.63,3,2.92,2.92,0,0,1-.73,2,4.32,4.32,0,0,1-1.84,1.11,3.48,3.48,0,0,1,2.11,1.15,3.25,3.25,0,0,1,.89,2.26,3.77,3.77,0,0,1-1.69,3.23,6.46,6.46,0,0,1-3.75,1.05,7,7,0,0,1-3.75-1,4.76,4.76,0,0,1-2.16-3l2.53-.63a2.49,2.49,0,0,0,.88,1.55,3.41,3.41,0,0,0,2.4.89,3.09,3.09,0,0,0,2-.57,1.88,1.88,0,0,0,.5-0.7,2.4,2.4,0,0,0,.18-1,1.83,1.83,0,0,0-1.26-1.83,9.71,9.71,0,0,0-3.13-.36v-2.06a10.34,10.34,0,0,0,2.71-.24,1.83,1.83,0,0,0,1.41-1.9,1.62,1.62,0,0,0-.75-1.42A3.2,3.2,0,0,0,895,1761.76Z" transform="translate(-476.48 -1473)" fill="#fff"/><path d="M1020.37,1767.05a9,9,0,0,1,1.48-5.2,5,5,0,0,1,4.33-2.4,5.09,5.09,0,0,1,4.51,2.4,9.47,9.47,0,0,1,1.32,5.2,8.55,8.55,0,0,1-1.53,5.28,5.46,5.46,0,0,1-8.64,0A8.71,8.71,0,0,1,1020.37,1767.05Zm5.81,5.3a2.54,2.54,0,0,0,2.43-1.75,9.46,9.46,0,0,0,.55-3.55,10.38,10.38,0,0,0-.52-3.82,2.45,2.45,0,0,0-2.46-1.63,2.51,2.51,0,0,0-2.39,1.81,9.88,9.88,0,0,0-.56,3.64,9.61,9.61,0,0,0,.53,3.53A2.48,2.48,0,0,0,1026.18,1772.35Z" transform="translate(-476.48 -1473)" fill="#fff"/><path d="M1042.45,1768.73h2v2.34h-2v3.16h-2.65v-3.16h-6.43v-1.94l6.33-9.49h2.76v9.09Zm-2.58-5.93-3.83,5.93h3.83v-5.93Z" transform="translate(-476.48 -1473)" fill="#fff"/><path d="M1163.36,1767.05a9,9,0,0,1,1.48-5.2,5,5,0,0,1,4.33-2.4,5.09,5.09,0,0,1,4.51,2.4,9.48,9.48,0,0,1,1.32,5.2,8.55,8.55,0,0,1-1.53,5.28,5.45,5.45,0,0,1-8.64,0A8.7,8.7,0,0,1,1163.36,1767.05Zm5.81,5.3a2.54,2.54,0,0,0,2.43-1.75,9.45,9.45,0,0,0,.55-3.55,10.35,10.35,0,0,0-.52-3.82,2.45,2.45,0,0,0-2.46-1.63,2.52,2.52,0,0,0-2.39,1.81,9.89,9.89,0,0,0-.56,3.64,9.58,9.58,0,0,0,.53,3.53A2.48,2.48,0,0,0,1169.17,1772.35Z" transform="translate(-476.48 -1473)" fill="#fff"/><path d="M1186.28,1762.12h-6.63l-0.38,3.94a6.55,6.55,0,0,1,1.51-1,4.5,4.5,0,0,1,1.72-.32,4.76,4.76,0,0,1,3.4,1.34,4.35,4.35,0,0,1,1.42,3.28,4.75,4.75,0,0,1-1.62,3.72,5.64,5.64,0,0,1-3.87,1.38,6.15,6.15,0,0,1-3.88-1.24,4.36,4.36,0,0,1-1.72-2.78l2.47-.34a2.6,2.6,0,0,0,1.09,1.62,3.45,3.45,0,0,0,2,.59,2.47,2.47,0,0,0,1.93-.85,3,3,0,0,0,.75-2,2.64,2.64,0,0,0-.77-1.9,2.58,2.58,0,0,0-1.91-.79,2.67,2.67,0,0,0-2.59,1.64l-2.34-.58,0.9-8.11h8.77Z" transform="translate(-476.48 -1473)" fill="#fff"/><path d="M1307.17,1767.05a9,9,0,0,1,1.48-5.2,5,5,0,0,1,4.33-2.4,5.08,5.08,0,0,1,4.5,2.4,9.44,9.44,0,0,1,1.32,5.2,8.55,8.55,0,0,1-1.53,5.28,5.45,5.45,0,0,1-8.64,0A8.72,8.72,0,0,1,1307.17,1767.05Zm5.81,5.3a2.54,2.54,0,0,0,2.43-1.75,9.42,9.42,0,0,0,.55-3.55,10.38,10.38,0,0,0-.52-3.82,2.45,2.45,0,0,0-2.46-1.63,2.51,2.51,0,0,0-2.39,1.81,9.86,9.86,0,0,0-.56,3.64,9.6,9.6,0,0,0,.54,3.53A2.47,2.47,0,0,0,1313,1772.35Z" transform="translate(-476.48 -1473)" fill="#fff"/><path d="M1326.3,1764.77a5.07,5.07,0,0,1,3.59,1.37,4.54,4.54,0,0,1,1.47,3.46,4.44,4.44,0,0,1-1.58,3.42,5.17,5.17,0,0,1-3.57,1.43,5.74,5.74,0,0,1-4.94-2.21,9,9,0,0,1-1.45-5.44,8.91,8.91,0,0,1,1.45-5.16,5,5,0,0,1,4.3-2.34,6.18,6.18,0,0,1,3.36.86,4.71,4.71,0,0,1,2,2.85l-2.37.43a3.34,3.34,0,0,0-1.13-1.71,3.06,3.06,0,0,0-1.66-.37,2.72,2.72,0,0,0-2.34,1.62,6,6,0,0,0-.79,3l0,0.56a4.61,4.61,0,0,1,1.6-1.32A4.5,4.5,0,0,1,1326.3,1764.77Zm-3.26,4.91a2.54,2.54,0,0,0,.81,2,2.78,2.78,0,0,0,1.95.75,2.84,2.84,0,0,0,2.05-.76,2.58,2.58,0,0,0,.79-1.94,2.75,2.75,0,0,0-.74-2,2.82,2.82,0,0,0-2.11-.75,2.62,2.62,0,0,0-2,.79A2.76,2.76,0,0,0,1323,1769.69Z" transform="translate(-476.48 -1473)" fill="#fff"/><path d="M601.48,1795.76s-19.8,17.72-28.66,19.79a125,125,0,0,0-96.34,122.27c0.31,67.79,55.43,123.46,123.21,124.41a125,125,0,0,0,30.51-246.66C621.33,1813.48,601.48,1795.76,601.48,1795.76Z" transform="translate(-476.48 -1473)" fill="#fff"/><circle cx="125.02" cy="464.26" r="113.97" fill="#f28f00"/><path d="M887.48,1795.76s-19.8,17.72-28.66,19.79a125,125,0,0,0-96.34,122.27c0.31,67.79,55.43,123.46,123.21,124.41a125,125,0,0,0,30.51-246.66C907.33,1813.48,887.48,1795.76,887.48,1795.76Z" transform="translate(-476.48 -1473)" fill="#fff"/><circle cx="411.02" cy="464.26" r="113.97" fill="#3dceb5"/><path d="M1175.52,1795.76s-19.8,17.72-28.66,19.79a125,125,0,0,0-96.34,122.27c0.31,67.79,55.43,123.46,123.21,124.41a125,125,0,0,0,30.51-246.66C1195.36,1813.48,1175.52,1795.76,1175.52,1795.76Z" transform="translate(-476.48 -1473)" fill="#fff"/><circle cx="699.05" cy="464.26" r="113.97" fill="#57ce95"/><path d="M1320.48,1739.48s19.8-17.72,28.66-19.79a125,125,0,0,0,96.34-122.27c-0.31-67.79-55.43-123.46-123.21-124.41a125,125,0,0,0-30.51,246.66C1300.64,1721.76,1320.48,1739.48,1320.48,1739.48Z" transform="translate(-476.48 -1473)" fill="#fff"/><circle cx="843.98" cy="124.98" r="113.97" fill="#70c4e5"/><path d="M1034.48,1739.48s19.8-17.72,28.66-19.79a125,125,0,0,0,96.34-122.27c-0.31-67.79-55.43-123.46-123.21-124.41a125,125,0,0,0-30.51,246.66C1014.64,1721.76,1034.48,1739.48,1034.48,1739.48Z" transform="translate(-476.48 -1473)" fill="#fff"/><circle cx="557.98" cy="124.98" r="113.97" fill="#ff3939"/><path d="M746.45,1739.48s19.8-17.72,28.66-19.79a125,125,0,0,0,96.34-122.27C871.14,1529.63,816,1474,748.24,1473a125,125,0,0,0-30.51,246.66C726.61,1721.76,746.45,1739.48,746.45,1739.48Z" transform="translate(-476.48 -1473)" fill="#fff"/><circle cx="269.95" cy="124.98" r="113.97" fill="#d14358"/><text transform="translate(88.26 419.58)" font-size="24" fill="#fff" font-family="Microsoft YaHei UI">总投资<tspan x="2.89" y="32.8">147万</tspan><tspan font-size="12" style="white-space:pre"><tspan x="-41.34" y="51.2">装修费用   140万=5万×35间</tspan><tspan x="-43.49" y="69.6">房屋设计费  7万=0.2万×35间</tspan><tspan x="-42.41" y="88">总投资     147万=140万+7万</tspan></tspan></text><text transform="translate(523.26 70.57)" font-size="24" fill="#fff" font-family="Microsoft YaHei UI">净利润<tspan x="-7.04" y="32.8">162.4万</tspan><tspan font-size="12"><tspan x="-49.79" y="54.8">毛利润-管理费用-租金-摊销费用</tspan></tspan><tspan font-size="12" style="white-space:pre"><tspan x="-37.38" y="72.8"> 308.1万-145.7万=162.4万</tspan></tspan><tspan font-size="12"><tspan x="-7.97" y="90.8">毛利润=308.1万</tspan><tspan x="-62.1" y="108.8">年房费收入×65%+非房费收入×10%</tspan></tspan></text><text transform="translate(787.26 85.57)" font-size="24" fill="#fff" font-family="Microsoft YaHei UI">投资收益率<tspan x="28.21" y="28.8">120%</tspan><tspan font-size="12"><tspan x="14.11" y="46.8">投资收益率120%</tspan><tspan x="9.44" y="64.8">运营现金流/总投资</tspan><tspan x="-0.98" y="82.8">177.1万/147万=120%</tspan></tspan></text><text transform="translate(340.76 428.58)" font-size="24" fill="#fff" font-family="Microsoft YaHei UI">租金及管理费<tspan x="38.89" y="32.8">131万</tspan><tspan font-size="12"><tspan x="38.99" y="51.2">合计=131万</tspan><tspan x="-8.76" y="69.6">客单佣金=年收入×20%=91万 </tspan><tspan x="22.74" y="88">年物业租金 =40万</tspan></tspan></text><text transform="translate(650.26 404.58)" font-size="24" fill="#fff" font-family="Microsoft YaHei UI">回收周期<tspan x="9.93" y="32.8">10个月</tspan><tspan font-size="12" style="white-space:pre"><tspan x="7.41" y="51.2">回收周期  10月</tspan></tspan><tspan font-size="12"><tspan x="-20.05" y="65.6">总投资/运营现金流×12月</tspan><tspan x="-14.58" y="80">=147万/177.1万×12月</tspan></tspan><tspan font-size="12" style="white-space:pre"><tspan x="-7.07" y="94.4">运营现金流  177.1万</tspan></tspan><tspan font-size="12"><tspan x="-11.19" y="108.8">毛利润-租金-管理费用</tspan><tspan x="-9.23" y="123.2">=308.1万-40万-91万</tspan></tspan></text><text transform="translate(235.77 52.58)" font-size="24" fill="#fff" font-family="Microsoft YaHei UI">年收入<tspan x="2.89" y="28.8">551万</tspan><tspan font-size="12"><tspan x="-15.01" y="49.2">房费总收入=460万</tspan><tspan x="-21.74" y="63.6">夜房年收入= 306.6万</tspan><tspan x="-27.74" y="78">钟点房年收入= 153.3万</tspan><tspan x="-35.76" y="92.4">250元/晚，120元/2小时，</tspan><tspan x="-0.38" y="106.8">80%的入住率</tspan><tspan x="-40.45" y="121.2">年均非房费收入=夜房年收入</tspan><tspan x="-23.62" y="135.6">×20%=201.6万×20%</tspan><tspan x="-31.83" y="150">非房费收入=460万×20%</tspan><tspan x="18.51" y="164.4">=91万</tspan></tspan></text></svg>