<?xml version="1.0" encoding="utf-8"?>
<!DOCTYPE svg PUBLIC "-//W3C//DTD SVG 1.1//EN" "http://www.w3.org/Graphics/SVG/1.1/DTD/svg11.dtd">
<svg style="width:308px;height:308px;" version="1.1" id="图形" xmlns="http://www.w3.org/2000/svg" xmlns:xlink="http://www.w3.org/1999/xlink" x="0px" y="0px" width="1024px" height="1024px" viewBox="0 0 1024 1024" enable-background="new 0 0 1024 1024" xml:space="preserve">
  <path class="svgpath" data-index="path_0" fill="#272636" d="M174.281 916.802c61.18 36.866 148.081 18.691 225.447-21.01l53.941-30.157c100.832-55.18 261.066-220.92 261.066-220.92l-0.004-0.005c105.37-108.399 313.779-387.17 165.979-505.897-76.699-61.608-130.125-38.936-183.014 32.697-52.891 71.638-92.976 118.933-29.914 182.334 0 0 76.102 61.305-105.227 234.155-155.938 147.621-208.928 84.535-208.928 84.535-49.933-57.822-119.376-21.721-190.434 31.94-60.447 45.652-79.354 91.271-45.221 150.678C144.79 901.637 174.281 916.803 174.281 916.802z" />
<path class="svgpath" data-index="path_1" fill="#272636" d="M445.835 339.454c0-10.228 8.291-18.52 18.519-18.52L510.8 320.934c10.228 0 18.519 8.292 18.519 18.52s-8.291 18.519-18.519 18.519l-46.446 0C454.126 357.973 445.835 349.682 445.835 339.454z" />
<path class="svgpath" data-index="path_2" fill="#272636" d="M342.948 339.454c0-10.228 8.292-18.52 18.52-18.52l46.446 0c10.228 0 18.52 8.292 18.52 18.52s-8.292 18.519-18.52 18.519l-46.446 0C351.24 357.973 342.948 349.682 342.948 339.454z" />
<path class="svgpath" data-index="path_3" fill="#272636" d="M240.063 339.454c0-10.228 8.291-18.52 18.519-18.52l46.446 0c10.229 0 18.52 8.292 18.52 18.52s-8.291 18.519-18.52 18.519l-46.446 0C248.354 357.973 240.063 349.682 240.063 339.454z" />
<path class="svgpath" data-index="path_4" fill="#272636" d="M445.835 406.528c0-10.229 8.291-18.52 18.519-18.52L510.8 388.008c10.228 0 18.519 8.291 18.519 18.52 0 10.228-8.291 18.519-18.519 18.519l-46.446 0C454.126 425.047 445.835 416.756 445.835 406.528z" />
<path class="svgpath" data-index="path_5" fill="#272636" d="M342.948 406.528c0-10.229 8.292-18.52 18.52-18.52l46.446 0c10.228 0 18.52 8.291 18.52 18.52 0 10.228-8.292 18.519-18.52 18.519l-46.446 0C351.24 425.047 342.948 416.756 342.948 406.528z" />
<path class="svgpath" data-index="path_6" fill="#272636" d="M240.063 406.528c0-10.229 8.291-18.52 18.519-18.52l46.446 0c10.229 0 18.52 8.291 18.52 18.52 0 10.228-8.291 18.519-18.52 18.519l-46.446 0C248.354 425.047 240.063 416.756 240.063 406.528z" />
<path class="svgpath" data-index="path_7" fill="#272636" d="M445.835 476.16c0-10.228 8.291-18.52 18.519-18.52L510.8 457.64c10.228 0 18.519 8.292 18.519 18.52s-8.291 18.519-18.519 18.519l-46.446 0C454.126 494.679 445.835 486.388 445.835 476.16z" />
<path class="svgpath" data-index="path_8" fill="#272636" d="M342.948 476.16c0-10.228 8.292-18.52 18.52-18.52l46.446 0c10.228 0 18.52 8.292 18.52 18.52s-8.292 18.519-18.52 18.519l-46.446 0C351.24 494.679 342.948 486.388 342.948 476.16z" />
<path class="svgpath" data-index="path_9" fill="#272636" d="M240.063 476.16c0-10.228 8.291-18.52 18.519-18.52l46.446 0c10.229 0 18.52 8.292 18.52 18.52s-8.291 18.519-18.52 18.519l-46.446 0C248.354 494.679 240.063 486.388 240.063 476.16z" />
<path class="svgpath" data-index="path_10" fill="#272636" d="M342.948 549.888c0-10.228 8.292-18.519 18.52-18.519l46.446 0c10.228 0 18.52 8.291 18.52 18.519s-8.292 18.52-18.52 18.52l-46.446 0C351.24 568.407 342.948 560.115 342.948 549.888z" />

</svg>
